<svg width="195" height="49" viewBox="0 0 195 49" fill="none" xmlns="http://www.w3.org/2000/svg">
<path d="M76 14.7144L73.425 20.0776C71.0176 18.7034 67.6065 17.4634 65.6337 17.4634C64.4629 17.4634 63.6941 17.8658 63.6941 18.7376C63.6941 22.1899 75.9332 20.145 75.9332 28.6256C75.9332 33.6197 71.5195 36 66.2691 36C62.2894 36 57.9424 34.592 55 32.2791L57.6081 26.9832C60.0155 29.027 63.928 30.5693 66.3358 30.5693C67.8078 30.5693 68.7432 30.0673 68.7432 28.9943C68.7432 25.4409 56.5046 27.687 56.5046 19.4081C56.5046 14.8824 60.3502 12 66.2023 12C69.7801 12 73.4586 13.0725 76 14.7144Z" fill="#03045E"/>
<path d="M97.1186 36V27.0645H88.8814V36H82V12H88.8814V21.552H97.1186V12H104V36H97.1186Z" fill="#03045E"/>
<path d="M111 36V12H118V36H111Z" fill="#03045E"/>
<path d="M131.136 17.4781V21.2442H142.49V26.7218H131.136V30.5224H144V36H124V12H143.658V17.4781H131.136Z" fill="#03045E"/>
<path d="M167 30.043V36H150V12H157.044V30.043H167Z" fill="#03045E"/>
<path d="M178.994 30.4196H182.525C185.72 30.4196 187.872 27.8861 187.872 24.0516C187.872 20.1827 185.551 17.6148 182.189 17.6148H178.994V30.4196ZM182.323 12C189.957 12 195 16.7593 195 23.9828C195 31.2068 189.855 36 182.087 36H172V12H182.323Z" fill="#03045E"/>
<path d="M0 3.8147e-06V36.8991L14.7161 44.9933V14.0404H34.3379V9.11879H9.66185V36.5613L5.05383 34.0266V4.92134H38.9457V34.0266L24.5269 41.9577V23.5935H29.2834V34.4256L34.3379 31.6456V18.6722H19.4728V47.61L21.9998 49L44 36.8991V3.8147e-06H0Z" fill="#03045E"/>
</svg>
